<?xml version="1.0" encoding="utf-8"?>
<!-- Generator: Adobe Illustrator 23.0.1, SVG Export Plug-In . SVG Version: 6.00 Build 0)  -->
<svg version="1.1" id="Layer_1" xmlns="http://www.w3.org/2000/svg" xmlns:xlink="http://www.w3.org/1999/xlink" x="0px" y="0px"
	 viewBox="0 0 489.5 437.5" style="enable-background:new 0 0 489.5 437.5;" xml:space="preserve">
<style type="text/css">
	.st0{fill:#FFFFFF;}
	.st1{fill:#FBCAA9;}
	.st2{fill:url(#SVGID_1_);}
	.st3{fill:#646982;}
	.st4{fill:#FDA63A;}
	.st5{fill:url(#SVGID_2_);}
	.st6{fill:url(#SVGID_3_);}
	.st7{fill:#ED5A37;}
	.st8{fill:url(#SVGID_4_);}
	.st9{opacity:0.5;fill:url(#SVGID_5_);enable-background:new    ;}
	.st10{opacity:0.5;fill:url(#SVGID_6_);enable-background:new    ;}
	.st11{fill:url(#SVGID_7_);}
	.st12{fill:url(#SVGID_8_);}
	.st13{fill:url(#SVGID_9_);}
	.st14{fill:url(#SVGID_10_);}
	.st15{fill:url(#SVGID_11_);}
	.st16{fill:url(#SVGID_12_);}
	.st17{fill:#FF822E;}
	.st18{fill:#EF6100;}
	.st19{fill:url(#SVGID_13_);}
	.st20{fill:url(#SVGID_14_);}
	.st21{fill:url(#SVGID_15_);}
	.st22{fill:url(#SVGID_16_);}
	.st23{fill:#FA7659;}
</style>
<title>Asset 1</title>
<g>
	<g id="Layer_1-2">
		<path class="st0" d="M459.7,212.3c-2.6,0-5.2-0.7-7.5-2c0.2-0.2,0.3-0.5,0.3-0.8v-7.8c0-0.6-0.5-1.2-1.2-1.2s-1.2,0.5-1.2,1.2v7.3
			c-5.3-4.1-8.9-11.4-8.9-19.8c0-0.6-0.5-1.2-1.2-1.2l0,0h-33.9c-0.6,0-1.2,0.5-1.2,1.2l0,0c0,11.2-6.5,20.7-15,22.7v-17.2
			c0-0.6-0.5-1.2-1.2-1.2l0,0h-8.1v-6c0-0.6-0.5-1.2-1.2-1.2l0,0H364c-0.6,0-1.2,0.5-1.2,1.2l0,0v6h-7.1v-3.6c0-0.6-0.5-1.2-1.2-1.2
			s-1.2,0.5-1.2,1.2v3.6h-39.6c-0.6,0-1.2,0.5-1.2,1.2l0,0v16.5l-14.6-12v-16.1c0-0.6-0.5-1.2-1.2-1.2l0,0h-23.6
			c-0.6,0-1.2,0.5-1.2,1.2l0,0v16.1l-12.3,10.1v-13.8h1.7c0.6,0,1.2-0.5,1.2-1.2l0,0v-7.2c0-0.6-0.5-1.2-1.2-1.2l0,0h-4.2V173
			c0-0.6-0.5-1.2-1.2-1.2l0,0h-6.2v-4.6c0-0.6-0.5-1.2-1.2-1.2l0,0H163c-0.6,0-1.2,0.5-1.2,1.2l0,0v4.6h-5.2c-0.6,0-1.2,0.5-1.2,1.2
			l0,0v8.3l-38.1-25.1c-0.4-0.3-0.9-0.3-1.3,0L78.7,181l-9.9-6.5v-19.2c0-0.4-0.2-0.8-0.5-1L41,136.9c-0.4-0.2-0.9-0.2-1.2,0
			l-27.3,17.4c-0.3,0.2-0.5,0.6-0.5,1v19.2l-4.3,2.8v-6.6c0-0.6-0.5-1.2-1.2-1.2c-0.6,0-1.2,0.5-1.2,1.2v8.2l-4.6,3
			c-0.3,0.2-0.5,0.6-0.5,1v151.6c0,0.6,0.5,1.2,1.2,1.2l0,0h458.5c0.6,0,1.2-0.5,1.2-1.1l0,0V213.4
			C460.9,212.8,460.3,212.3,459.7,212.3z"/>
		<path class="st0" d="M484,42.6c-3.5-3.5-8.3-5.5-13.3-5.5c-0.6,0-1.2,0-1.8,0.1c-3.9-8.4-12.3-13.8-21.6-13.8
			c-11.1,0-20.7,7.6-23.2,18.4c-8.4,0.9-14.7,8-14.7,16.4c0,4.4,1.8,8.6,4.9,11.7s7.4,4.8,11.7,4.8h44.7c5,0,9.7-2,13.3-5.5
			c3.5-3.5,5.5-8.3,5.5-13.3C489.4,50.9,487.5,46.2,484,42.6z"/>
		<path class="st0" d="M383.1,6.1c-1.1-1.1-2.6-1.7-4.2-1.7c-0.2,0-0.4,0-0.6,0c-1.3-2.7-4-4.4-6.9-4.4c-1.8,0-3.6,0.6-4.9,1.8
			c-1.2,1-2.1,2.4-2.4,4c-2.9,0.3-4.9,2.9-4.6,5.8c0.1,1.2,0.7,2.3,1.5,3.1c1,1,2.3,1.5,3.7,1.5h14.2c1.6,0,3.1-0.6,4.2-1.7
			s1.7-2.6,1.7-4.2C384.8,8.7,384.2,7.2,383.1,6.1z"/>
		<path class="st1" d="M420.9,423.4c0,5.5-33.3,9.9-74.3,9.9s-74.3-4.4-74.3-9.9s33.3-9.9,74.3-9.9S420.9,417.9,420.9,423.4z"/>
		<path class="st1" d="M374.1,432.1c0,3-18.1,5.4-40.5,5.4s-40.5-2.4-40.5-5.4s18.1-5.4,40.5-5.4S374.1,429.2,374.1,432.1z"/>
		<path class="st1" d="M213.7,425.1c0,3.9-23.8,7.1-53.2,7.1s-53.2-3.2-53.2-7.1s23.8-7.1,53.2-7.1S213.7,421.2,213.7,425.1z"/>
		
			<linearGradient id="SVGID_1_" gradientUnits="userSpaceOnUse" x1="362.3823" y1="1011.8818" x2="353.2723" y2="879.0319" gradientTransform="matrix(1 0 0 1 0 -640)">
			<stop  offset="0" style="stop-color:#FBA43B"/>
			<stop  offset="7.000000e-02" style="stop-color:#FA9F3A"/>
			<stop  offset="1" style="stop-color:#ED5A37"/>
		</linearGradient>
		<path class="st2" d="M372.5,246c-1-14.1-36.7,0.4-36.3,15c0.6,24.7,7.2,55.7,8.5,62.7c5.2,29.7,6.6,66,6.7,75.5
			c-0.2,1.4-1.2,2.5-2.5,3c0,0,0.6,3.3,6.3,3s8.3-2.3,8.3-2.3c1.3-15.1,7.1-67.9-2.6-77.5C355.6,320.1,375.2,285.4,372.5,246z"/>
		<path class="st3" d="M349.3,401.6c-4.9,3.8-17.8,4.6-11.7,7c1.1,0.4,27.7,1.4,28.1-1c0.1-0.5,0.5-5-1.7-6.6
			c-2.6,1.2-5.5,1.8-8.4,1.9C350.3,403.2,349.3,401.6,349.3,401.6z"/>
		<path class="st4" d="M388,250.8c1.7-14.1-34.6-9.5-47.3-8.3c-10.1,0.9,6.6,9.3,7,23.8c0.6,24.7,10,58.5,11.2,65.4
			c5.2,29.7,10.5,64,10.7,73.6c-0.2,1.4-1.2,2.5-2.5,3c0,0,0.6,3.3,6.3,3s8.4-2.3,8.4-2.3c1.3-15.1-2-54-3.7-76.2
			C377.5,325.3,382.6,295.9,388,250.8z"/>
		<path class="st4" d="M367.5,407.8c-4.9,3.8-21.7,9.7-15.6,12.1c1.1,0.4,31.2-1.2,32.2-2c0.4-0.3,0.2-9-2-10.6
			c-2.6,1.2-5.5,1.8-8.4,1.9C368.5,409.4,367.5,407.8,367.5,407.8z"/>
		
			<linearGradient id="SVGID_2_" gradientUnits="userSpaceOnUse" x1="274.1811" y1="841.9564" x2="345.3511" y2="794.8864" gradientTransform="matrix(1 0 0 1 0 -640)">
			<stop  offset="0" style="stop-color:#FBA43B"/>
			<stop  offset="7.000000e-02" style="stop-color:#FA9F3A"/>
			<stop  offset="1" style="stop-color:#ED5A37"/>
		</linearGradient>
		<path class="st5" d="M303.9,175.8c-7.8,4.4-34.8,21.9-37.4,22.5c-2,0.5-9.9-0.1-12,1.3s-4.6,7.6-5.1,9.5s7,4.4,9.5,3.2
			s5.3-3.8,6.6-4c13.4-1.9,39.7-13.9,47.4-18c17.8-9.6,30.6-18.8,31.8-20.5c3.8-5,2.8-27.1-5.6-22.2
			C330.3,153,306.7,174.2,303.9,175.8z"/>
		<path class="st4" d="M367,80.2c-22.1-18.4-40.8,1.8-41.8,5.8c-1.2,4.6,5.4,8.1,6.6,12.9c0,0,1.4,6.5-0.6,9.4
			c-1.9,2.7,6.4,1.6,6.6,2.5c0.4,2.3-6,1.7-5.6,2.8c0.9,2.3-1.7,2-0.9,2.5c2.9,1.8,1.6,1.3,2,0.5c-0.9,2-3.6,3.8-7,4.4
			c-1.2,0.2,1.5,2.4,1.4,3.3c0.6,1.9,1.4,0.3,3.8,1.2s7.2-0.4,11.2,1.2s-0.6,15.9-1.3,19.9c0,0,30.8-7.5,28.4-11.4
			c-2.9-4.7-8.8-14.9-5.6-18.1S375.5,87.3,367,80.2z"/>
		<path class="st4" d="M389,256.9c-9.1,0.8-53.8,5-60.3,1c2.1-6,4-19.9,2.1-45.7c-0.9-13-7.1-30.8-6.7-36.4
			c0.3-4,13.9-37.1,18.8-37.6c9.6-1.2,18.9-4.4,27.2-9.4c0.1,0.1,18.1,14,6.6,65.2c-2.2,9.6,7.3,28.1,8.1,30
			C391.6,240.6,390.8,256.8,389,256.9z"/>
		<path class="st4" d="M391.3,139.6c-3.8-11.8-12.1-14.4-14.6-23.4c-2.2-8.1,2.1-15.8-1.1-27.4c-2.6-9.2-6.9-13.1-16.6-16.1
			c-20-6.2-30.2,6.9-30.2,6.9c-21.5,12.1,11.1,18.6,12.8,23.9s7-8,12.2-2.9s0.5,7.2,0.5,8.8c0.3,5.5,3.2,25.9,9.6,30.6
			c19.7,14.5,10.8,39.4,12.4,46.2C395.6,165.9,396.5,155.6,391.3,139.6z"/>
		
			<radialGradient id="SVGID_3_" cx="359.65" cy="934.8611" r="19.5395" gradientTransform="matrix(1 0 0 1 0 -640)" gradientUnits="userSpaceOnUse">
			<stop  offset="0" style="stop-color:#ED5A37"/>
			<stop  offset="0.93" style="stop-color:#FA9F3A"/>
			<stop  offset="1" style="stop-color:#FBA43B"/>
		</radialGradient>
		<path class="st6" d="M359.5,274.2c-3.9,0-7.6,1.4-10.7,3.8c-0.1,2.1,0.3,3.4,0.3,5.4c0.1,0.3,0.9,6.2,1,6.5c1,4.2,0.7,3.6,1.1,8
			c0.3,3.9,1,7.7,2.1,11.4c0.2,0.9,1.6,5.1,1.8,6c1.6,0.5,2.6,0,4.4,0c10.2,0,18.4-9.2,18.4-20.6S369.7,274.2,359.5,274.2z"/>
		<path class="st7" d="M336.1,337.9l-0.1-2.1c16.9-1.5,3.2-52.4,22.2-38v-0.3c30.7,5,22.9,26.7,2.9,5.9
			C338.8,280.2,357.2,336.5,336.1,337.9z M360.9,300.1c3,2.8,11.5,11.7,15.3,9.8C377.8,309.1,374.2,303,360.9,300.1L360.9,300.1z"/>
		
			<linearGradient id="SVGID_4_" gradientUnits="userSpaceOnUse" x1="357.2138" y1="920.5698" x2="351.1438" y2="816.1898" gradientTransform="matrix(1 0 0 1 0 -640)">
			<stop  offset="0" style="stop-color:#FDA63A"/>
			<stop  offset="0.55" style="stop-color:#EF5A37"/>
			<stop  offset="1" style="stop-color:#FDA63A"/>
		</linearGradient>
		<path class="st8" d="M358.3,292.9c-0.7,1-1.8,1.6-3,1.6c1.2,0.3,2.4,0.8,3.5,1.4c1.1-2.9,1.6-6,1.5-9.1
			C360.2,289,359.5,291.1,358.3,292.9z"/>
		
			<linearGradient id="SVGID_5_" gradientUnits="userSpaceOnUse" x1="360.9709" y1="920.3511" x2="354.8909" y2="815.9711" gradientTransform="matrix(1 0 0 1 0 -640)">
			<stop  offset="0" style="stop-color:#FDA63A"/>
			<stop  offset="0.55" style="stop-color:#EF5A37"/>
			<stop  offset="1" style="stop-color:#FDA63A"/>
		</linearGradient>
		<path class="st9" d="M368.4,214.3c-1.7-8.7,1-62.9-12.8-68.1c-8.1-3-12.5,0-11.8,9.6s-3,39.7,6.6,63.6c1.2,9.2,2.8,22.6,3.5,35.7
			c0.2,0.4,0.4,0.8,0.5,1.3c1,7,3.3,13.7,4.8,20.6c0.7,2.8,1.1,5.6,1.2,8.5c0-0.1,0-0.3,0-0.4C363.9,274.9,371.4,229.6,368.4,214.3z
			"/>
		
			<linearGradient id="SVGID_6_" gradientUnits="userSpaceOnUse" x1="365.2522" y1="794.1804" x2="369.4722" y2="1073.4604" gradientTransform="matrix(1 0 0 1 0 -640)">
			<stop  offset="0" style="stop-color:#FDA63A"/>
			<stop  offset="0.24" style="stop-color:#F88B39"/>
			<stop  offset="0.54" style="stop-color:#F37038"/>
			<stop  offset="0.8" style="stop-color:#F06037"/>
			<stop  offset="1" style="stop-color:#EF5A37"/>
		</linearGradient>
		<path class="st10" d="M360.1,220.9c2.6,20,7.3,60-0.4,72.9c0.8,0.5,1.6,1,2.4,1.5l0.5,0.3c2.1,0.4-1.5,2.5,0.3,3.4
			c1.8-4.7,6.4-12.4,6.6-15.1c3.5-10.1,11.5-52.8,8.5-68c-1.7-8.7,1-62.9-12.8-68.1c-8.1-3-12.5,0-11.8,9.6S350.4,197,360.1,220.9z"
			/>
		<path class="st4" d="M375.4,214.3c-1.7-8.7,1-62.9-12.8-68.1c-8.1-3-18.6,2.1-17.9,11.8s4.1,40.9,12.8,61.4
			c-2.2,12.2,0.6,61.4,0.4,62.6c-0.5,1.2-9.2,13-8.1,13.9s3.9-2.1,3.4-1.1s0.5,2-2.2,4c-1.6,1.2,8.6,7.6,11.4,3.5
			c5.7-8.2,4.8-13.5,5.1-17.4C370.9,274.9,378.4,229.6,375.4,214.3z"/>
		
			<linearGradient id="SVGID_7_" gradientUnits="userSpaceOnUse" x1="327.24" y1="1054.3" x2="347.6765" y2="1054.3" gradientTransform="matrix(1 0 0 1 0 -640)">
			<stop  offset="0" style="stop-color:#FBA43B"/>
			<stop  offset="7.000000e-02" style="stop-color:#FA9F3A"/>
			<stop  offset="1" style="stop-color:#ED5A37"/>
		</linearGradient>
		<path class="st11" d="M327.2,400.5l11.9,2.5c5.5,6.1,14.3,20.1,3.2,24.2c-2.8,1-13.9,2.2-13.9-2.7c0.1-3.8,6.5-2.2,9.8-3.8
			C339.9,419.8,328.4,410.5,327.2,400.5z"/>
		
			<linearGradient id="SVGID_8_" gradientUnits="userSpaceOnUse" x1="306.0018" y1="1066.7507" x2="313.7818" y2="1047.5807" gradientTransform="matrix(1 0 0 1 0 -640)">
			<stop  offset="0" style="stop-color:#FBA43B"/>
			<stop  offset="7.000000e-02" style="stop-color:#FA9F3A"/>
			<stop  offset="1" style="stop-color:#ED5A37"/>
		</linearGradient>
		<path class="st12" d="M311.3,419.5c5-12.7,1.7-29.1,2.4-40.5c1.3,2.4,9.8-1.1,11.1,7.1c0.7,4.5-3.6,26.7-3.7,30.8
			c-0.1,5-5.9,11.9-11.6,10.9c-4.6-0.9-4-4.4-2.4-6.2C308.8,419.6,310.9,420.6,311.3,419.5z"/>
		
			<linearGradient id="SVGID_9_" gradientUnits="userSpaceOnUse" x1="332.1198" y1="950.8665" x2="320.9198" y2="946.3165" gradientTransform="matrix(1 0 0 1 0 -640)">
			<stop  offset="0" style="stop-color:#EF5A37"/>
			<stop  offset="0.26" style="stop-color:#F05D37"/>
			<stop  offset="0.48" style="stop-color:#F26838"/>
			<stop  offset="0.68" style="stop-color:#F57938"/>
			<stop  offset="0.87" style="stop-color:#F99139"/>
			<stop  offset="1" style="stop-color:#FDA63A"/>
		</linearGradient>
		<path class="st13" d="M321.9,299.5c-2.9,2.1,2.3,7.5-1.1,14s10,2.3,13-4C338.5,300,324.8,297.4,321.9,299.5z"/>
		<path class="st4" d="M404.8,421c-1.4-1.4-5.9,3.2-13,4.2c-7.6,1.1-17.9-1.3-19.1-1.9c1.8-4.4,2.6-9.2,2.5-13.9
			c0.3-42-27-58.9-37.8-77.7c-1.9-5.7,0.5-10.6-0.3-20.1c-0.6-6.7-9.6-10.5-14.6-11.3c-4.3-0.7-9.6,3.6-11.6,4.3s-11.6-0.3-16.4-0.8
			s-3.7,9.5-3.7,9.5c-0.6,6.1,10.4,9.2,13.4,10.3c4.7,1.5,6.2,6.1,6.9,9.6c-0.8,5.8-9.1,19.5-2.1,41.2c3.2,10.2,4.8,14.6,6,24.6
			c1.2,10.5,3.5,27.9-1.5,30.1c-4.7,2.1-3.2,9.4,7.7,6.7c2.2-0.5,4.6-3.6,3.8-5s3.1-25.3,3.1-25.3s4,6.4,7.6,9.3
			c6.5,5.2,9.9,10.4,9.1,11.2c-1.3,1.3-15.3-1.4-14,4.4s23.9,4,23.9,4s15.3-2.5,16.6-3.4C399.1,436.4,409.6,425.5,404.8,421z"/>
		
			<linearGradient id="SVGID_10_" gradientUnits="userSpaceOnUse" x1="319.5228" y1="952.7946" x2="339.6271" y2="952.7946" gradientTransform="matrix(1 0 0 1 0 -640)">
			<stop  offset="0" style="stop-color:#EF5A37"/>
			<stop  offset="0.26" style="stop-color:#F05D37"/>
			<stop  offset="0.48" style="stop-color:#F26838"/>
			<stop  offset="0.68" style="stop-color:#F57938"/>
			<stop  offset="0.87" style="stop-color:#F99139"/>
			<stop  offset="1" style="stop-color:#FDA63A"/>
		</linearGradient>
		<path class="st14" d="M328.5,303.6c-5.5,2.3-0.8,7.6-8,15c-5.2,5.4,13.9,3.4,16.5,1.5C345.4,313.8,331.7,302.3,328.5,303.6z"/>
		<path class="st4" d="M291.7,303c0.7-0.2,5.5,0.1,4.5,1.6c-1.2,1.9-4.8,5.2-5.3,4.9S289.6,303.5,291.7,303z"/>
		<path class="st7" d="M309.1,339.7c1.9,0,6.6,1.9,15.9-1.5s11.9-8,13-7.9s4,6.7,4,6.7s-1,2.6-13.6,7.4c-10.5,4-21,2.6-22.1,1.8
			S307.2,339.7,309.1,339.7z"/>
		<path class="st4" d="M328.5,301.9c-5.5,2.3,1.7,8.6-5.6,16.1c-5.2,5.4,11.5,2.3,14,0.4C345.4,312,331.7,300.5,328.5,301.9z"/>
		
			<linearGradient id="SVGID_11_" gradientUnits="userSpaceOnUse" x1="138.6429" y1="1038.6523" x2="145.7329" y2="913.6524" gradientTransform="matrix(1 0 0 1 0 -640)">
			<stop  offset="0" style="stop-color:#FDA63A"/>
			<stop  offset="1" style="stop-color:#EF5A37"/>
		</linearGradient>
		<path class="st15" d="M127.8,254.6c0.7-14.3,37.7-13.2,37.6,1.5c-0.2,25-5.6,78.4-6.7,85.5c-4.8,30.2-15.4,73.7-15.4,73.7
			c-2.9,2-15.5,3-15.5,3"/>
		<path class="st4" d="M163,414.3c-0.7-9.3-30.2-116.3-35.2-146.7c-0.9-5.6-0.4-6.5,1.1-17.6c0.9-6.4,44.5,3.2,45.3,7.1
			c6.5,32.4,4.7,150,4.7,157.2"/>
		
			<linearGradient id="SVGID_12_" gradientUnits="userSpaceOnUse" x1="193.2805" y1="927.1298" x2="167.7205" y2="850.4498" gradientTransform="matrix(1 0 0 1 0 -640)">
			<stop  offset="0" style="stop-color:#FBA43B"/>
			<stop  offset="7.000000e-02" style="stop-color:#FA9F3A"/>
			<stop  offset="1" style="stop-color:#ED5A37"/>
		</linearGradient>
		<path class="st16" d="M154.5,226.8c-2.2-12.4-13.3-63.1-7.3-73.4c3.9-6.8,14.1-12.3,19.9-1s6.6,73.3,6.9,73.9
			c5.1,11.4,17.9,47.7,18.7,49.9c1.5,2.4,5.9,13.5,4.6,16.9c-0.8,2.1-7.8,2-11,1.1c-0.9-0.2,3.3-1.9,2.8-4.7
			c-0.4-2.4-1.6-2.9-1.4-2.1c0.3,1.4,0,4.3-1.9,4.4s-0.9-10.4-1.1-11.6C179,269.1,156.7,239.2,154.5,226.8z"/>
		<path class="st4" d="M189.9,88.4c-10.7,1.8-14.6-3-16.3-0.7s-5.1,17-5.2,17.2c-1.1,0.4-2.2,0.6-3.4,0.6c-0.5-0.1-2.5-11.8-9-4.7
			c-3.3,3.6-0.4,9.7,0.6,12.7c0.9,2.8-6.3,12.4-6.6,12.6c-0.6-8.6-7.4-13.7-10.1-19c-8.1-22.7,2-33.3,15.3-36.8
			c7.7-2,17.8,0.5,23.3,2.3c14.1,4.6,6.4-6.7,16.1-1C199.3,74.3,200.6,86.6,189.9,88.4z"/>
		<path class="st4" d="M173,130.2c-2.6,0.2-1.9,5-2.7,8.9c-1,5.1-24.5-3.6-22.9-6.5s3.5-9.6,3.9-10.8c0.3-5.3-13.6-14.8-11-27.2
			c2-9.3,5.2-16.1,16.7-18.6c10.9-2.3,26.7-0.8,30.9,9.6s0.2,12.5,0.8,15.6"/>
		<path class="st17" d="M176.1,266.2c2.1,5.2-51.7,2.2-52.4-0.9c-1-4-0.6-27,0.1-40.8c1.3-25.3,5-36,7.8-55.1
			c1.8-12.4,14.5-38.3,15.1-38.3c2.9,0,9.9,7.3,24.2,6.6c4.4-0.2,10.5,23.1,13.6,38.8C190.5,202.8,176.1,266.2,176.1,266.2z"/>
		<path class="st18" d="M185,216.8c0.4-2.1,0.7-5.5,1-8.3c0.5-4.3,1.1-8.6,1.9-12.8c0.5-2.7,1.2-5.3,2.1-7.9c-1.2-1.9-2.5-3.9-3.6-6
			c-5-10.4-11.6-26.9-20.2-31.4c-14-7.3-20.8,3.3-24.6,9.7c-5.1,8.7,16.5,37.6,29.2,46.3l0,0c4.5,5.1,8.6,9.9,13.4,12.6
			C184.4,218.3,184.7,217.5,185,216.8z"/>
		<path class="st4" d="M256.8,195.8c-1.2-0.1-8.6,0.9-10.5,0.9c-1,0-36.2-2.8-48-2.8c0,0-12.4-16.1-16.8-27.8l-20.3,20.4
			c7.4,14.6,17.4,22.6,26.7,27.1c12.8,6.1,57-6.8,58.4-6.5c4.5,1,8.5,3.7,14.7,2.4c1.1-0.2,1.2-1.1,1.4-1.4s1-0.1,1.5-0.6
			c1.2-1.5,0.3-2.4,0.5-2.3c0.4,0.3,1.1,0.1,1.5-0.9c0.4-0.6,0.2-1.4-0.3-1.8c0.6,0.2,1.1-0.8,1.1-1.2
			C266.9,198.9,259.9,196.1,256.8,195.8z"/>
		<path class="st17" d="M166.1,144.6c-14-7.3-20.8,3.3-24.6,9.7c-5.1,8.7,16.5,37.6,29.2,46.3l20.6-16.6
			C185.9,179.3,177.9,150.7,166.1,144.6z"/>
		
			<linearGradient id="SVGID_13_" gradientUnits="userSpaceOnUse" x1="248.23" y1="850.4006" x2="260.74" y2="850.4006" gradientTransform="matrix(1 0 0 1 0 -640)">
			<stop  offset="0" style="stop-color:#ED5A37"/>
			<stop  offset="0.93" style="stop-color:#FA9F3A"/>
			<stop  offset="1" style="stop-color:#FBA43B"/>
		</linearGradient>
		<path class="st19" d="M258.5,212.8c0.9-0.1,1.7-0.8,2-1.7c1-2.7-2-2.1-3.1,0.1c1.1-3-1.6-2.8-3-0.5c1.1-2.1-1.4-3-2.9-0.3
			c0.9-2.3-0.4-3.9-3.4-0.2c-0.1,0.5,0.1,0.9,0.5,1.2c1.8,1,2.1-0.1,2.4-0.1s-0.3,0.5,1,1c1.5,0.6,1.6-0.4,2.4-0.2
			c0.2,0,0.5,0.3,0.8,0.5c0.6,0.3,1.3,0.2,1.8-0.2C257.5,212.2,258.1,212.8,258.5,212.8z"/>
		<path class="st4" d="M258.2,213.3c0.9-0.1,1.7-0.8,2-1.7c1-2.7-2-2.1-3.1,0.1c1.1-3-1.6-2.8-3-0.5c1.1-2.1-1.4-3-2.9-0.3
			c0.9-2.2-0.4-3.9-3.4-0.2c-0.1,0.5,0.1,0.9,0.5,1.2c1.8,1,2.1,0,2.4-0.1s-0.3,0.5,1,1s1.6-0.4,2.4-0.2c0.2,0,0.5,0.3,0.8,0.5
			c0.6,0.3,1.3,0.2,1.8-0.2C257.1,212.7,257.8,213.4,258.2,213.3z"/>
		
			<linearGradient id="SVGID_14_" gradientUnits="userSpaceOnUse" x1="248.6115" y1="838.9412" x2="266.8315" y2="840.4012" gradientTransform="matrix(1 0 0 1 0 -640)">
			<stop  offset="0" style="stop-color:#ED5A37"/>
			<stop  offset="0.93" style="stop-color:#FA9F3A"/>
			<stop  offset="1" style="stop-color:#FBA43B"/>
		</linearGradient>
		<path class="st20" d="M251.8,200.4c-0.8-1.7,2.2-0.8,5-2.7c2-1.4,7.1,1.3,9.5,1.1l1.4,3.8c-4.1,1-7.5-2.6-11-1.7
			C254.3,201.6,252.4,201.6,251.8,200.4z"/>
		
			<linearGradient id="SVGID_15_" gradientUnits="userSpaceOnUse" x1="989.7383" y1="285.5994" x2="1002.4782" y2="298.3394" gradientTransform="matrix(0.8771 0.4802 -0.4802 0.8771 -387.1947 -607.5378)">
			<stop  offset="0" style="stop-color:#EF5A37"/>
			<stop  offset="1" style="stop-color:#FDA63A"/>
		</linearGradient>
		<path class="st21" d="M339.8,126.8c0,0,5.1,0.6,4,7.5c-1.1,6.9,12,3,12,3l-5.6-18.8L339.8,126.8z"/>
		
			<linearGradient id="SVGID_16_" gradientUnits="userSpaceOnUse" x1="-368.7649" y1="1027.7463" x2="-357.8437" y2="1038.6675" gradientTransform="matrix(-0.88 0.48 0.48 0.88 -646.49 -606.19)">
			<stop  offset="0" style="stop-color:#EF5A37"/>
			<stop  offset="1" style="stop-color:#FDA63A"/>
		</linearGradient>
		<path class="st22" d="M175.6,128.9c0,0-6.9,2.3-4.5,8.8c0.7,2-10.8-1.1-10.8-1.1l4.8-16.1L175.6,128.9z"/>
		<path class="st4" d="M346.5,101.1c-1.2-0.1-2.4,0.5-3.2,1.5l-1.8-12.9c0,0-8.7,3.7-16.4,3.1c0,0-0.5,10.2-0.8,16.8
			c0,0-0.5,7.6,0.2,9.8c1.6,5.1,3.3,8,6.7,9.4c3.7,1.6,8,1.5,11.7-0.2c4.7-2.4,7.4-10.3,7.4-10.3s-5.3-3.7-4.9-6.3
			c0.8,0,3.6-1,3.8-4.6S348.5,101.3,346.5,101.1z"/>
		<path class="st4" d="M163,412.1l0.3,12l0.1,2.4c0,0.3,0.2,0.6,0.4,0.7l1,0.1l31.1-0.7c0.4,0,0.8-0.4,0.8-0.8l0,0l-0.1-2.1
			c0-0.1,0-0.2,0-0.4c-0.1-1.1-0.6-2.2-3.3-3.4l-0.1-0.1l0,0l-7.5-3.4l-1.9-0.8l-8.3-3.7L163,412.1z"/>
		<path class="st4" d="M127.8,411.6l0.3,12v2.4c0,0.3,0.1,0.5,0.4,0.7l0.8,0.1l24.3-0.5c0.4-0.1,0.7-0.4,0.6-0.8v-2.1
			c0-0.1,0-0.2,0-0.4c-0.1-1.1-0.5-2.2-2.6-3.4l-0.1-0.1l0,0l0,0l-5.9-3.4l-1.5-0.9l-6.5-3.8L127.8,411.6z"/>
		<path class="st4" d="M190,94.2c-0.3-8.5-7.5-15.1-16-14.7c-4,0.2-7.8,1.9-10.5,4.7c-2.8,3.1-4.4,7.1-4.5,11.2h-0.2V116h0.1
			c0,0,0,0.1,0,0.2c0,6.3,3.8,11.9,9.6,14.3l0,0c0.4,0.1,0.7,0.3,1.1,0.4s0.8,0.2,1.2,0.4c1.1,0.3,2.1,0.4,3.2,0.4
			c0.1,0,0.1,0,0.2,0h0.3c1.6,0,3.2-0.3,4.8-0.8c3.3-1.1,6.1-3.2,8-6c0,0,0-0.1,0.1-0.1l0,0c0.2-0.3,0.2-0.6,0.4-0.9
			s0.4-0.8,0.4-1.2l0,0c0-0.4,0.6-0.9,0.8-1.4c0.3-0.6,0.5-1.3,0.7-2c0-0.1,0.2-0.2,0.2-0.3l0,0V98C190,97.7,190,94.5,190,94.2z"/>
		<path class="st23" d="M404.9,343.8c-3.6-0.1-6.5-3.1-6.4-6.7s3.1-6.5,6.7-6.4c0.3,0,0.6,0,0.9,0.1c0-0.4-0.1-0.7-0.1-1.1
			c0-4.8,3.9-8.7,8.7-8.7c2,0,3.9,0.7,5.4,1.9c0.3-5.4,4.9-9.5,10.3-9.2s9.5,4.9,9.2,10.3c-0.1,1-0.3,1.9-0.6,2.8
			c0.8-0.2,1.6-0.4,2.5-0.4c4.8,0,8.7,3.9,8.7,8.7s-3.9,8.7-8.7,8.7L404.9,343.8L404.9,343.8z"/>
		<path class="st23" d="M95.8,343.8H37.3c-7.7,0-14-6.3-14-14s6.3-14,14-14c1.4,0,2.7,0.2,4,0.6c-3-8.1,1.1-17.2,9.3-20.2
			c8.1-3,17.2,1.1,20.2,9.3c0.5,1.5,0.9,3,1,4.6c6.1-4.8,14.9-3.8,19.7,2.3c2,2.5,3,5.6,3,8.7c0,0.6,0,1.2-0.1,1.7
			c0.5-0.1,1-0.1,1.5-0.1c5.8-0.1,10.7,4.5,10.8,10.4s-4.5,10.7-10.4,10.8l0,0L95.8,343.8z"/>
	</g>
</g>
</svg>
